<?xml version="1.0" encoding="UTF-8" standalone="no"?>
<!-- Created with Inkscape (http://www.inkscape.org/) -->

<svg
   width="8.4666672mm"
   height="8.4666748mm"
   viewBox="0 0 8.4666672 8.4666748"
   version="1.1"
   id="svg5"
   xml:space="preserve"
   xmlns="http://www.w3.org/2000/svg"
   xmlns:svg="http://www.w3.org/2000/svg"><defs
     id="defs2" /><g
     id="layer1"
     transform="translate(-84.08745,-151.71365)"><g
       style="fill:none"
       id="g24"
       transform="matrix(0.26458333,0,0,0.26458333,-35.76755,17.536331)"><g
         id="g186"
         transform="matrix(0.03839997,0,0,0.03839997,449.79528,503.92694)"><circle
           cx="500"
           cy="500"
           r="416.66699"
           fill="#ffffff"
           id="circle11"
           style="display:inline" /><path
           fill-rule="evenodd"
           clip-rule="evenodd"
           d="m 83.3333,500 c 0,177.882 111.4927,329.757 268.4027,389.514 -3.819,-32.535 -7.882,-86.181 0.868,-123.819 7.535,-32.362 48.646,-206.181 48.646,-206.181 0,0 -12.396,-24.826 -12.396,-61.597 0,-57.639 33.403,-100.695 75.035,-100.695 35.417,0 52.5,26.563 52.5,58.403 0,35.59 -22.674,88.785 -34.375,138.125 -9.757,41.285 20.729,74.965 61.424,74.965 73.715,0 130.416,-77.743 130.416,-189.965 0,-99.34 -71.389,-168.75 -173.298,-168.75 -117.987,0 -187.257,88.507 -187.257,180 0,35.66 13.715,73.854 30.868,94.653 3.368,4.132 3.889,7.708 2.882,11.91 -3.16,13.125 -10.174,41.284 -11.528,47.048 -1.84,7.57 -6.007,9.202 -13.889,5.521 -51.806,-24.097 -84.167,-99.826 -84.167,-160.66 0,-130.868 95.035,-251.007 274.028,-251.007 143.889,0 255.729,102.535 255.729,239.549 0,142.951 -90.104,258.021 -215.243,258.021 -42.048,0 -81.528,-21.875 -95.069,-47.674 0,0 -20.799,79.236 -25.834,98.611 -9.791,37.639 -36.944,85.278 -53.784,112.327 38.819,11.944 80,18.368 122.708,18.368 C 730.104,916.667 916.667,730.104 916.667,500 916.667,269.896 730.104,83.3334 500,83.3334 269.896,83.3334 83.3333,269.896 83.3333,500"
           fill="#e60023"
           id="path13" /></g></g></g></svg>
